<svg width="28" height="40" viewBox="0 0 28 40" xmlns="http://www.w3.org/2000/svg">
  <defs>
    <style>
      svg {
        fill: #666;
        overflow: visible;
      }
      .line-wrapper {
        transform-box: fill-box;
        transform-origin: center;
        animation: outerWave 1.1s ease-in-out infinite both;
      }
      .line-wrapper:nth-child(2n) {
        --scale-y: 2.25;
        animation-delay: 0.5s;
      }
      .line-wrapper:nth-child(3n) {
        --scale-y: 3.5;
        animation-delay: 0.9s;
      }
      .line-wrapper:nth-child(4n) {
        --scale-y: 2.5;
        animation-delay: 1s;
      }
      .line-wrapper:nth-child(5n) {
        --scale-y: 3.25;
        animation-delay: 0.75s;
      }
      .line-wrapper:nth-child(6n) {
        --scale-y: 4.5;
        animation-delay: 1.2;
      }
      .line-wrapper:nth-child(10n) {
        --scale-y: 5;
        animation-delay: 0.8s;
      }

      .line {
        transform-box: fill-box;
        transform-origin: center;
        animation: innerWave 0.15s ease-in-out 0s infinite both;
      }
      .line-wrapper:nth-child(2n) .line {
        animation-delay: 0.1s;
      }
      @keyframes outerWave {
        from,
        30%,
        to {
          transform: scaleY(1);
        }
        15% {
          transform: scaleY(var(--scale-y));
        }
      }
      @keyframes innerWave {
        from,
        to {
          transform: scaleY(1);
        }
        50% {
          transform: scaleY(1.5);
        }
      }

      .ellipsis path {
        animation: fadeInOut 0.8s ease-in-out infinite both;
      }
      .ellipsis path:nth-child(1) {
        animation-delay: 0s;
      }
      .ellipsis path:nth-child(2) {
        animation-delay: 0.2s;
      }
      .ellipsis path:nth-child(3) {
        animation-delay: 0.4s;
      }
      @keyframes fadeInOut {
        from {
          opacity: 0;
        }
        50%,
        to {
          opacity: 1;
        }
      }
    </style>
    <symbol id="line">
      <rect y="12.6427" width="1" height="6" />
    </symbol>
  </defs>
  <g class="lines">
    <g class="line-wrapper"><use class="line" href="#line" x="0.623413" /></g>
    <g class="line-wrapper"><use class="line" href="#line" x="3.32336" /></g>
    <g class="line-wrapper"><use class="line" href="#line" x="6.02344" /></g>
    <g class="line-wrapper"><use class="line" href="#line" x="8.72339" /></g>
    <g class="line-wrapper"><use class="line" href="#line" x="11.4235" /></g>
    <g class="line-wrapper"><use class="line" href="#line" x="14.1234" /></g>
    <g class="line-wrapper"><use class="line" href="#line" x="16.8234" /></g>
    <g class="line-wrapper"><use class="line" href="#line" x="19.5234" /></g>
    <g class="line-wrapper"><use class="line" href="#line" x="22.2234" /></g>
    <g class="line-wrapper"><use class="line" href="#line" x="24.9235" /></g>
  </g>
  <path fill-rule="evenodd" clip-rule="evenodd" d="M4.60632 39.05C4.22299 39.05 3.88965 38.9734 3.60632 38.82C3.32632 38.6667 3.10965 38.45 2.95632 38.17C2.80298 37.89 2.72632 37.5584 2.72632 37.175C2.72632 36.7917 2.80298 36.46 2.95632 36.18C3.10965 35.9 3.32632 35.6834 3.60632 35.53C3.88965 35.3767 4.22299 35.3 4.60632 35.3C4.99299 35.3 5.32632 35.3767 5.60632 35.53C5.88632 35.6834 6.10299 35.9 6.25632 36.18C6.40965 36.46 6.48632 36.7917 6.48632 37.175C6.48632 37.5584 6.40965 37.89 6.25632 38.17C6.10299 38.45 5.88632 38.6667 5.60632 38.82C5.32632 38.9734 4.99299 39.05 4.60632 39.05ZM4.60632 38.495C4.86299 38.495 5.08298 38.4417 5.26632 38.335C5.45298 38.2284 5.59632 38.0767 5.69632 37.88C5.79632 37.6834 5.84632 37.4484 5.84632 37.175C5.84632 36.9017 5.79632 36.6667 5.69632 36.47C5.59632 36.2734 5.45298 36.1217 5.26632 36.015C5.08298 35.9084 4.86299 35.855 4.60632 35.855C4.34632 35.855 4.12299 35.9084 3.93632 36.015C3.75299 36.1217 3.61132 36.2734 3.51132 36.47C3.41465 36.6667 3.36632 36.9017 3.36632 37.175C3.36632 37.4484 3.41465 37.6834 3.51132 37.88C3.61132 38.0767 3.75299 38.2284 3.93632 38.335C4.12299 38.4417 4.34632 38.495 4.60632 38.495ZM21.0932 39.05C20.6798 39.05 20.3248 38.975 20.0282 38.825C19.7315 38.675 19.5032 38.46 19.3432 38.18C19.1865 37.9 19.1082 37.565 19.1082 37.175C19.1082 36.785 19.1865 36.45 19.3432 36.17C19.4998 35.89 19.7232 35.675 20.0132 35.525C20.3065 35.375 20.6548 35.3 21.0582 35.3C21.2815 35.3 21.4932 35.325 21.6932 35.375C21.8932 35.4217 22.0715 35.4934 22.2282 35.59L22.0832 36.115C21.9432 36.0317 21.7832 35.9684 21.6032 35.925C21.4232 35.8784 21.2415 35.855 21.0582 35.855C20.7882 35.855 20.5565 35.9067 20.3632 36.01C20.1732 36.1134 20.0265 36.2634 19.9232 36.46C19.8232 36.6567 19.7732 36.895 19.7732 37.175C19.7732 37.455 19.8232 37.6934 19.9232 37.89C20.0265 38.0867 20.1765 38.2367 20.3732 38.34C20.5732 38.4434 20.8132 38.495 21.0932 38.495C21.2398 38.495 21.3815 38.4817 21.5182 38.455C21.6207 38.4325 21.7157 38.4025 21.8032 38.365V37.4H20.6432V36.875H22.4232V38.765C22.2465 38.855 22.0398 38.925 21.8032 38.975C21.5698 39.025 21.3332 39.05 21.0932 39.05ZM15.568 39V35.35H16.233L17.868 37.97H17.878V35.35H18.498V39H17.833L16.203 36.38H16.193V39H15.568ZM14.0698 35.35V39H14.7198V35.35H14.0698ZM10.4899 39V35.35H11.5299C12.1732 35.35 12.6482 35.5 12.9549 35.8C13.2649 36.0966 13.4199 36.555 13.4199 37.175C13.4199 37.795 13.2649 38.255 12.9549 38.555C12.6482 38.8516 12.1732 39 11.5299 39H10.4899ZM11.5699 38.45C11.8565 38.45 12.0882 38.4066 12.2649 38.32C12.4449 38.2333 12.5765 38.0966 12.6599 37.91C12.7432 37.72 12.7849 37.475 12.7849 37.175C12.7849 36.8716 12.7432 36.6266 12.6599 36.44C12.5765 36.2533 12.4449 36.1166 12.2649 36.03C12.0882 35.9433 11.8565 35.9 11.5699 35.9H11.1149V38.45H11.5699ZM7.89009 35.35L6.59509 39H7.28009L7.56755 38.125H9.05263L9.34009 39H10.0251L8.73509 35.35H7.89009ZM8.8703 37.57L8.31509 35.88H8.30509L7.74989 37.57H8.8703ZM0.138306 35.35V39H2.71831V38.445H0.778306V35.35H0.138306Z" />
  <g class="ellipsis">
    <path d="M23.4232 39.05V38.345H24.1332V39.05H23.4232Z" />
    <path d="M24.9905 39.05V38.345H25.7005V39.05H24.9905Z" />
    <path d="M26.5579 39.05V38.345H27.2679V39.05H26.5579Z" />
  </g>
</svg>