<svg width="161" height="61" viewBox="0 0 161 61" xmlns="http://www.w3.org/2000/svg">
  <defs>
    <style>
      svg {
        fill: #666;
      }

      .text {
        transform-box: fill-box;
        transform-origin: bottom center;
        animation: scale 1.5s ease-in-out infinite;
      }
      .text:nth-child(7) {
        animation-delay: 0s;
      }
      .text:nth-child(6) {
        animation-delay: 0.06s;
      }
      .text:nth-child(5) {
        animation-delay: 0.12s;
      }
      .text:nth-child(4) {
        animation-delay: 0.18s;
      }
      .text:nth-child(3) {
        animation-delay: 0.24s;
      }
      .text:nth-child(2) {
        animation-delay: 0.3s;
      }
      .text:nth-child(1) {
        animation-delay: 0.36s;
      }
      @keyframes scale {
        0% {
          transform: scale(1);
        }
        19.8% {
          transform: scale(1.45, 0.7);
        }
        39.6% {
          transform: scale(0.8, 1.4);
        }
        52.8% {
          transform: scale(1.2, 0.7);
        }
        66%,
        100% {
          transform: scale(1);
        }
      }

      .circle1,
      .circle2 {
        animation: slideRight 1.5s ease-in-out 0s infinite;
      }
      .circle3-wrapper {
        animation: slideTop 1.5s ease-in-out 0s infinite;
      }
      .circle3 {
        animation: slideLeft 1.5s ease-in-out 0s infinite;
      }
      @keyframes slideTop {
        0%,
        60%,
        80%,
        100% {
          transform: translateY(0);
        }
        70% {
          transform: translateY(8px);
        }
      }
      @keyframes slideLeft {
        0%,
        60% {
          transform: translateX(0);
        }
        80%,
        100% {
          transform: translateX(-20px);
        }
      }
      @keyframes slideRight {
        0%,
        60% {
          transform: translateX(0);
        }
        80%,
        100% {
          transform: translateX(10px);
        }
      }
    </style>
  </defs>
  <g>
    <path class="text" d="M142.076 33.8904C139.844 33.8904 137.927 33.4854 136.325 32.6754C134.723 31.8654 133.49 30.7044 132.626 29.1924C131.78 27.6804 131.357 25.8714 131.357 23.7654C131.357 21.6594 131.78 19.8504 132.626 18.3384C133.472 16.8264 134.678 15.6654 136.244 14.8554C137.828 14.0454 139.709 13.6404 141.887 13.6404C143.093 13.6404 144.236 13.7754 145.316 14.0454C146.396 14.2974 147.359 14.6844 148.205 15.2064L147.422 18.0414C146.666 17.5914 145.802 17.2494 144.83 17.0154C143.858 16.7634 142.877 16.6374 141.887 16.6374C140.429 16.6374 139.178 16.9164 138.134 17.4744C137.108 18.0324 136.316 18.8424 135.758 19.9044C135.218 20.9664 134.948 22.2534 134.948 23.7654C134.948 25.2774 135.218 26.5644 135.758 27.6264C136.316 28.6884 137.126 29.4984 138.188 30.0564C139.268 30.6144 140.564 30.8934 142.076 30.8934C142.868 30.8934 143.633 30.8214 144.371 30.6774C145.109 30.5154 145.775 30.2814 146.369 29.9754L145.91 31.0554V24.9804H139.646V22.1454H149.258V32.3514C148.304 32.8374 147.188 33.2154 145.91 33.4854C144.65 33.7554 143.372 33.8904 142.076 33.8904Z" />
    <path class="text" d="M109.54 33.6204V13.9104H113.131L121.96 28.0584H122.014V13.9104H125.362V33.6204H121.771L112.969 19.4724H112.915V33.6204H109.54Z" />
    <path class="text" d="M98.75 33.6204V13.9104H102.26V33.6204H98.75Z" />
    <path class="text" d="M76.7178 33.6204V13.9104H82.3338C85.8078 13.9104 88.3728 14.7204 90.0288 16.3404C91.7028 17.9424 92.5398 20.4174 92.5398 23.7654C92.5398 27.1134 91.7028 29.5974 90.0288 31.2174C88.3728 32.8194 85.8078 33.6204 82.3338 33.6204H76.7178ZM82.5498 30.6504C84.0978 30.6504 85.3488 30.4164 86.3028 29.9484C87.2748 29.4804 87.9858 28.7424 88.4358 27.7344C88.8858 26.7084 89.1108 25.3854 89.1108 23.7654C89.1108 22.1274 88.8858 20.8044 88.4358 19.7964C87.9858 18.7884 87.2748 18.0504 86.3028 17.5824C85.3488 17.1144 84.0978 16.8804 82.5498 16.8804H80.0928V30.6504H82.5498Z" />
    <path class="text" d="M52.9858 33.6204L59.9788 13.9104H64.5418L71.5078 33.6204H67.8088L62.2738 16.7724H62.2198L56.6848 33.6204H52.9858ZM56.8198 28.8954V25.8984H67.7008V28.8954H56.8198Z" />
    <path class="text" d="M39.547 33.8904C37.477 33.8904 35.677 33.4764 34.147 32.6484C32.635 31.8204 31.465 30.6504 30.637 29.1384C29.809 27.6264 29.395 25.8354 29.395 23.7654C29.395 21.6954 29.809 19.9044 30.637 18.3924C31.465 16.8804 32.635 15.7104 34.147 14.8824C35.677 14.0544 37.477 13.6404 39.547 13.6404C41.635 13.6404 43.435 14.0544 44.947 14.8824C46.459 15.7104 47.629 16.8804 48.457 18.3924C49.285 19.9044 49.699 21.6954 49.699 23.7654C49.699 25.8354 49.285 27.6264 48.457 29.1384C47.629 30.6504 46.459 31.8204 44.947 32.6484C43.435 33.4764 41.635 33.8904 39.547 33.8904ZM39.547 30.8934C40.933 30.8934 42.121 30.6054 43.111 30.0294C44.119 29.4534 44.893 28.6344 45.433 27.5724C45.973 26.5104 46.243 25.2414 46.243 23.7654C46.243 22.2894 45.973 21.0204 45.433 19.9584C44.893 18.8964 44.119 18.0774 43.111 17.5014C42.121 16.9254 40.933 16.6374 39.547 16.6374C38.143 16.6374 36.937 16.9254 35.929 17.5014C34.939 18.0774 34.174 18.8964 33.634 19.9584C33.112 21.0204 32.851 22.2894 32.851 23.7654C32.851 25.2414 33.112 26.5104 33.634 27.5724C34.174 28.6344 34.939 29.4534 35.929 30.0294C36.937 30.6054 38.143 30.8934 39.547 30.8934Z" />
    <path class="text" d="M12.7194 33.6204V13.9104H16.1754V30.6234H26.6514V33.6204H12.7194Z" />
  </g>
  <g>
    <circle class="circle1" cx="70.9886" cy="48.3904" r="2.5" />
    <circle class="circle2" cx="80.9886" cy="48.3904" r="2.5" />
    <g class="circle3-wrapper">
      <circle class="circle3" cx="90.9886" cy="48.3904" r="2.5" />
    </g>
  </g>
</svg>