<svg width="39" height="39" viewBox="0 0 39 39" xmlns="http://www.w3.org/2000/svg">
  <defs>
    <style>
      svg {
        --color: #666;
        fill: var(--color);
      }

      .frame {
        fill: none;
        stroke: var(--color);
        stroke-width: 2;
      }
      .line {
        animation: slide 1.4s ease-in-out 0s infinite;
      }
      @keyframes slide {
        from,
        10%,
        to {
          transform: translateX(0);
        }
        50%,
        60% {
          transform: translateX(13.5px);
        }
      }

      .text {
        transform-box: fill-box;
        transform-origin: center;
        animation: scale 1.4s ease-in-out infinite;
      }
      .text:nth-child(1) {
        animation-delay: 0s;
      }
      .text:nth-child(2) {
        animation-delay: 0.06s;
      }
      .text:nth-child(3) {
        animation-delay: 0.12s;
      }
      .text:nth-child(4) {
        animation-delay: 0.18s;
      }
      .text:nth-child(5) {
        animation-delay: 0.24s;
      }
      .text:nth-child(6) {
        animation-delay: 0.3s;
      }
      .text:nth-child(7) {
        animation-delay: 0.36s;
      }
      @keyframes scale {
        0%,
        27%,
        100% {
          transform: scale(1, 1);
        }
        13.5% {
          transform: scale(1.2, 1.6);
        }
      }
    </style>
  </defs>
  <g>
    <rect class="frame" x="5.47021" y="10.6288" width="28" height="8" rx="4"/>
    <rect class="line" x="7.65234" y="12.6288" width="10" height="4" rx="2" />
  </g>
  <g>
    <path class="text" d="M6.17883 30.2737V26.4777H7.08883V29.5093H8.97123V30.2737H6.17883Z" />
    <path class="text" d="M11.4736 30.3257C11.0645 30.3257 10.7127 30.2477 10.418 30.0917C10.1233 29.9357 9.89627 29.7121 9.73681 29.4209C9.58081 29.1297 9.50281 28.7813 9.50281 28.3757C9.50281 27.9701 9.58081 27.6217 9.73681 27.3305C9.89627 27.0393 10.1233 26.8157 10.418 26.6597C10.7127 26.5037 11.0645 26.4257 11.4736 26.4257C11.8827 26.4257 12.2328 26.5037 12.524 26.6597C12.8187 26.8157 13.044 27.0393 13.2 27.3305C13.3595 27.6217 13.4392 27.9701 13.4392 28.3757C13.4392 28.7813 13.3595 29.1297 13.2 29.4209C13.044 29.7121 12.8187 29.9357 12.524 30.0917C12.2328 30.2477 11.8827 30.3257 11.4736 30.3257ZM11.4736 29.5613C11.6989 29.5613 11.8913 29.5162 12.0508 29.4261C12.2103 29.3325 12.3299 29.199 12.4096 29.0257C12.4928 28.8489 12.5344 28.6322 12.5344 28.3757C12.5344 28.1191 12.4928 27.9042 12.4096 27.7309C12.3299 27.5541 12.2103 27.4206 12.0508 27.3305C11.8913 27.2369 11.6989 27.1901 11.4736 27.1901C11.2448 27.1901 11.0507 27.2369 10.8912 27.3305C10.7352 27.4206 10.6156 27.5541 10.5324 27.7309C10.4527 27.9042 10.4128 28.1191 10.4128 28.3757C10.4128 28.6322 10.4527 28.8489 10.5324 29.0257C10.6156 29.199 10.7352 29.3325 10.8912 29.4261C11.0507 29.5162 11.2448 29.5613 11.4736 29.5613Z" />
    <path class="text" d="M14.0212 30.2737L15.264 26.4777H16.46L17.6976 30.2737H16.7252L15.8672 27.2317H15.8568L14.9936 30.2737H14.0212ZM14.8324 29.4885V28.7449H16.8864V29.4885H14.8324Z" />
    <path class="text" d="M18.6111 30.2737V26.4777H19.8279C20.497 26.4777 20.9875 26.6302 21.2995 26.9353C21.6115 27.2369 21.7675 27.717 21.7675 28.3757C21.7675 29.0343 21.6115 29.5162 21.2995 29.8213C20.9875 30.1229 20.497 30.2737 19.8279 30.2737H18.6111ZM19.8799 29.5457C20.1226 29.5457 20.315 29.5093 20.4571 29.4365C20.6027 29.3637 20.7067 29.2406 20.7691 29.0673C20.8315 28.8939 20.8627 28.6634 20.8627 28.3757C20.8627 28.0845 20.8315 27.8539 20.7691 27.6841C20.7067 27.5107 20.6027 27.3877 20.4571 27.3149C20.315 27.2421 20.1226 27.2057 19.8799 27.2057H19.4951V29.5457H19.8799Z" />
    <path class="text" d="M22.8541 30.2737V26.4777H23.7797V30.2737H22.8541Z" />
    <path class="text" d="M25.0491 30.2737V26.4777H25.9539L27.3111 28.7813H27.3215V26.4777H28.2055V30.2737H27.3059L25.9435 27.9701H25.9331V30.2737H25.0491Z" />
    <path class="text" d="M31.3575 30.3257C30.9207 30.3257 30.5446 30.2494 30.2291 30.0969C29.9171 29.9409 29.6762 29.7173 29.5063 29.4261C29.3399 29.1349 29.2567 28.7847 29.2567 28.3757C29.2567 27.9666 29.3382 27.6182 29.5011 27.3305C29.6675 27.0393 29.9032 26.8157 30.2083 26.6597C30.5168 26.5037 30.8843 26.4257 31.3107 26.4257C31.5464 26.4257 31.7666 26.4499 31.9711 26.4985C32.1791 26.547 32.3663 26.6215 32.5327 26.7221L32.3403 27.4397C32.2051 27.3565 32.0439 27.2906 31.8567 27.2421C31.673 27.1935 31.491 27.1693 31.3107 27.1693C31.0715 27.1693 30.8687 27.2161 30.7023 27.3097C30.5359 27.4033 30.4094 27.5402 30.3227 27.7205C30.236 27.8973 30.1927 28.1157 30.1927 28.3757C30.1927 28.6391 30.236 28.861 30.3227 29.0413C30.4128 29.2181 30.5446 29.3533 30.7179 29.4469C30.8912 29.537 31.1044 29.5821 31.3575 29.5821C31.4788 29.5821 31.5898 29.5717 31.6903 29.5509C31.7943 29.5266 31.8931 29.4902 31.9867 29.4417L31.8775 29.6653V28.7345H30.8947V27.9961H32.7615V30.0189C32.5708 30.1159 32.3524 30.1922 32.1063 30.2477C31.8636 30.2997 31.614 30.3257 31.3575 30.3257Z" />
  </g>
</svg>